<?xml version="1.0" encoding="utf-8"?>
<!-- Generator: Adobe Illustrator 16.0.3, SVG Export Plug-In . SVG Version: 6.00 Build 0)  -->
<!DOCTYPE svg PUBLIC "-//W3C//DTD SVG 1.1//EN" "http://www.w3.org/Graphics/SVG/1.1/DTD/svg11.dtd">
<svg version="1.1" id="Layer_1" xmlns="http://www.w3.org/2000/svg" xmlns:xlink="http://www.w3.org/1999/xlink" x="0px" y="0px"
	 width="140px" height="150px" viewBox="0 0 140 150" enable-background="new 0 0 140 150" xml:space="preserve">
<g>
	<polygon fill="#FF7040" points="65.036,45.182 65.036,40.217 60.071,40.217 60.071,45.182 55.106,45.182 50.143,45.182 
		50.143,50.147 50.143,55.112 50.143,60.077 50.143,65.04 55.106,65.04 55.106,60.077 55.106,55.112 55.106,50.147 60.071,50.147 
		65.036,50.147 70.001,50.147 70.001,45.182 	"/>
	<polygon fill="#FF4046" points="60.071,30.287 60.071,35.252 55.106,35.252 55.106,40.217 50.143,40.217 50.143,45.182 
		55.106,45.182 60.071,45.182 60.071,40.217 65.036,40.217 65.036,35.252 65.036,30.287 	"/>
	<g>
		<g>
			<rect x="65.036" y="25.322" fill="#FF4046" width="4.965" height="4.965"/>
		</g>
	</g>
	<g>
		<g>
			<rect x="79.93" y="40.217" fill="#FF4046" width="4.964" height="4.965"/>
		</g>
	</g>
	<g>
		<g>
			<rect x="74.965" y="35.252" fill="#FF4046" width="4.965" height="4.965"/>
		</g>
	</g>
	<polygon fill="#FF7040" points="84.894,50.147 84.894,45.182 79.93,45.182 74.965,45.182 74.965,50.147 79.93,50.147 79.93,55.112 
		84.894,55.112 84.894,60.077 84.894,65.04 89.858,65.04 89.858,60.077 89.858,55.112 89.858,50.147 	"/>
	<polygon fill="#FFAF40" points="79.93,55.112 79.93,50.147 74.965,50.147 70.001,50.147 65.036,50.147 60.071,50.147 
		55.106,50.147 55.106,55.112 55.106,60.077 55.106,65.04 55.106,70.007 60.071,70.007 60.071,65.04 60.071,60.077 60.071,55.112 
		65.036,55.112 70.001,55.112 74.965,55.112 74.965,60.077 79.93,60.077 79.93,65.04 79.93,70.007 84.894,70.007 84.894,65.04 
		84.894,60.077 84.894,55.112 	"/>
	<path fill="#FFEF40" d="M74.965,60.077v-4.965h-4.964h-4.965h-4.965v4.965v4.963v4.967v4.965h4.965h4.965h4.964h4.965v-4.965V65.04
		v-4.963H74.965z M74.965,70.007h-4.964h-4.965V65.04v-4.963h4.965v4.963h4.964V70.007z"/>
	<polygon fill="#FFFFFF" points="70.001,65.04 70.001,60.077 65.036,60.077 65.036,65.04 65.036,70.007 70.001,70.007 
		74.965,70.007 74.965,65.04 	"/>
	<g>
		<g>
			<path fill="#806D60" d="M109.717,82.419c0,4.113-3.335,7.448-7.447,7.448l0,0c-4.112,0-7.447-3.335-7.447-7.448l0,0
				c0-4.113,3.335-7.447,7.447-7.447l0,0C106.382,74.972,109.717,78.306,109.717,82.419L109.717,82.419z"/>
		</g>
	</g>
	<path fill="#A68E7C" d="M100.343,104.508l4.001-14.347L39.66,75.225l-0.002,0.008c-0.615-0.165-1.259-0.261-1.926-0.261
		c-4.113,0-7.275,3.333-7.275,7.447c0,3.393,2.544,6.251,5.544,7.149v0.004l-0.025,0.034c0.188,0.05,0.292,0.096,0.485,0.132
		L100.343,104.508z"/>
	<g>
		<g>
			<polygon fill="#806D60" points="35.657,90.161 100.343,75.225 104.248,89.613 39.66,104.508 			"/>
		</g>
	</g>
	<g>
		<g>
			<path fill="#A68E7C" d="M45.179,97.314c0,4.112-3.335,7.447-7.447,7.447l0,0c-4.113,0-7.446-3.335-7.446-7.447l0,0
				c0-4.113,3.333-7.447,7.446-7.447l0,0C41.844,89.867,45.179,93.201,45.179,97.314L45.179,97.314z"/>
		</g>
	</g>
	<g>
		<g>
			<path fill="#806D60" d="M109.717,97.314c0,4.112-3.335,7.447-7.447,7.447l0,0c-4.112,0-7.447-3.335-7.447-7.447l0,0
				c0-4.113,3.335-7.447,7.447-7.447l0,0C106.382,89.867,109.717,93.201,109.717,97.314L109.717,97.314z"/>
		</g>
	</g>
</g>
<g>
	<path fill="#806D60" d="M133.628,40.786c-0.42-0.915-0.86-1.82-1.318-2.714l-0.885,0.455c0.454,0.881,0.888,1.772,1.303,2.674
		L133.628,40.786z"/>
	<path fill="#806D60" d="M133.584,99.325c0.42-0.908,0.82-1.827,1.201-2.755l-0.918-0.377c-0.376,0.916-0.771,1.82-1.185,2.715
		L133.584,99.325z"/>
	<path fill="#806D60" d="M137.697,52.133c-0.256-0.973-0.533-1.938-0.83-2.896l-0.948,0.295c0.293,0.942,0.565,1.895,0.819,2.854
		L137.697,52.133z"/>
	<path fill="#806D60" d="M135.911,46.374c-0.34-0.95-0.7-1.89-1.081-2.819l-0.918,0.375c0.373,0.916,0.729,1.842,1.064,2.779
		L135.911,46.374z"/>
	<path fill="#806D60" d="M138,58.188l0.978-0.169c-0.171-0.992-0.363-1.978-0.575-2.955l-0.971,0.21
		C137.642,56.237,137.829,57.209,138,58.188z"/>
	<path fill="#806D60" d="M127.667,30.313c-0.569-0.828-1.157-1.644-1.764-2.444l-0.792,0.599c0.598,0.79,1.176,1.593,1.739,2.409
		L127.667,30.313z"/>
	<path fill="#806D60" d="M120.011,21.023c-0.702-0.717-1.42-1.419-2.152-2.105l-0.678,0.724c0.721,0.677,1.429,1.369,2.122,2.076
		L120.011,21.023z"/>
	<path fill="#806D60" d="M124.038,25.503c-0.64-0.775-1.294-1.537-1.966-2.283l-0.738,0.664c0.661,0.736,1.309,1.486,1.938,2.251
		L124.038,25.503z"/>
	<path fill="#806D60" d="M115.618,16.905c-0.761-0.653-1.536-1.292-2.323-1.912l-0.615,0.779c0.777,0.613,1.541,1.242,2.292,1.887
		L115.618,16.905z"/>
	<path fill="#806D60" d="M130.873,35.419c-0.497-0.874-1.015-1.738-1.548-2.587l-0.839,0.527c0.525,0.838,1.033,1.688,1.523,2.552
		L130.873,35.419z"/>
	<path fill="#806D60" d="M127.627,109.76c0.57-0.825,1.122-1.662,1.658-2.512l-0.841-0.528c-0.528,0.837-1.072,1.663-1.634,2.475
		L127.627,109.76z"/>
	<path fill="#806D60" d="M138.756,64.075l0.988-0.084c-0.084-1.004-0.191-2.002-0.318-2.994l-0.985,0.126
		C138.567,62.102,138.672,63.084,138.756,64.075z"/>
	<path fill="#806D60" d="M0.567,78.949c0.127,0.999,0.275,1.992,0.444,2.979l0.979-0.168c-0.167-0.973-0.313-1.951-0.439-2.936
		L0.567,78.949z"/>
	<path fill="#806D60" d="M110.892,13.181c-0.812-0.586-1.639-1.154-2.477-1.706l-0.547,0.828c0.827,0.544,1.642,1.106,2.443,1.684
		L110.892,13.181z"/>
	<path fill="#806D60" d="M0.062,72.949c0.042,1.008,0.104,2.009,0.189,3.005l0.988-0.083c-0.083-0.982-0.144-1.97-0.185-2.963
		L0.062,72.949z"/>
	<path fill="#806D60" d="M6.064,96.021l-0.919,0.374c0.379,0.934,0.78,1.856,1.198,2.771l0.902-0.414
		C6.833,97.853,6.439,96.941,6.064,96.021z"/>
	<path fill="#806D60" d="M139,70.007V70h1v0.007c0-1.008-0.021-2.012-0.063-3.009l-0.995,0.041
		C138.981,68.023,139,69.011,139,70.007z"/>
	<path fill="#806D60" d="M8.544,101.428l-0.883,0.453c0.458,0.896,0.937,1.779,1.432,2.654l0.863-0.492
		C9.467,103.184,8.997,102.311,8.544,101.428z"/>
	<path fill="#806D60" d="M1.585,84.885c0.214,0.984,0.447,1.961,0.702,2.93l0.959-0.253c-0.25-0.954-0.481-1.917-0.691-2.888
		L1.585,84.885z"/>
	<path fill="#806D60" d="M5.003,93.24c-0.335-0.932-0.648-1.873-0.941-2.823l-0.949,0.292c0.296,0.959,0.617,1.922,0.956,2.865
		L5.003,93.24z"/>
	<path fill="#806D60" d="M136.702,87.757l0.96,0.255c0.257-0.969,0.494-1.943,0.709-2.928l-0.969-0.212
		C137.188,85.842,136.957,86.803,136.702,87.757z"/>
	<path fill="#806D60" d="M134.934,93.424l0.935,0.337c0.339-0.943,0.66-1.896,0.958-2.854l-0.946-0.297
		C135.585,91.557,135.269,92.494,134.934,93.424z"/>
	<path fill="#806D60" d="M139.931,73.153l-0.992-0.043c-0.043,0.992-0.108,1.98-0.194,2.962l0.99,0.086
		C139.82,75.162,139.887,74.161,139.931,73.153z"/>
	<path fill="#806D60" d="M11.48,106.598l-0.841,0.527c0.535,0.852,1.086,1.691,1.656,2.52l0.818-0.564
		C12.551,108.266,12.007,107.438,11.48,106.598z"/>
	<path fill="#806D60" d="M137.976,81.959l0.979,0.171c0.172-0.985,0.323-1.978,0.454-2.978l-0.984-0.129
		C138.295,80.008,138.145,80.987,137.976,81.959z"/>
	<path fill="#806D60" d="M130.831,104.668c0.497-0.869,0.975-1.75,1.435-2.643l-0.881-0.455c-0.454,0.881-0.926,1.749-1.415,2.605
		L130.831,104.668z"/>
	<path fill="#806D60" d="M14.889,28.468l-0.792-0.599c-0.605,0.8-1.192,1.614-1.762,2.44l0.817,0.564
		C13.715,30.059,14.294,29.257,14.889,28.468z"/>
	<path fill="#806D60" d="M8.588,38.501l-0.884-0.454c-0.456,0.889-0.896,1.79-1.315,2.702l0.902,0.415
		C7.704,40.266,8.137,39.377,8.588,38.501z"/>
	<path fill="#806D60" d="M11.522,33.35l-0.841-0.528c-0.532,0.848-1.048,1.708-1.544,2.581l0.862,0.491
		C10.489,35.035,10.997,34.186,11.522,33.35z"/>
	<path fill="#806D60" d="M32.138,12.301l-0.546-0.831c-0.84,0.553-1.667,1.124-2.481,1.71l0.579,0.806
		C30.493,13.408,31.31,12.846,32.138,12.301z"/>
	<path fill="#806D60" d="M27.319,15.774l-0.616-0.78c-0.789,0.622-1.564,1.261-2.326,1.915l0.648,0.755
		C25.777,17.017,26.541,16.387,27.319,15.774z"/>
	<path fill="#806D60" d="M22.817,19.647l-0.679-0.725c-0.733,0.688-1.45,1.389-2.152,2.106l0.709,0.695
		C21.387,21.017,22.095,20.324,22.817,19.647z"/>
	<path fill="#806D60" d="M18.663,23.889l-0.738-0.664c-0.671,0.746-1.326,1.506-1.965,2.282l0.767,0.632
		C17.355,25.375,18,24.624,18.663,23.889z"/>
	<path fill="#806D60" d="M1.57,61.056l-0.986-0.127c-0.128,0.991-0.236,1.989-0.322,2.993l0.989,0.085
		C1.336,63.018,1.442,62.034,1.57,61.056z"/>
	<path fill="#806D60" d="M1.06,67.002l-0.992-0.028C0.025,67.972,0.001,69,0,70h0.994C0.995,69,1.017,67.986,1.06,67.002z"/>
	<path fill="#806D60" d="M4.102,49.468l-0.949-0.296c-0.297,0.958-0.578,1.932-0.832,2.896l0.961,0.252
		C3.535,51.361,3.809,50.409,4.102,49.468z"/>
	<path fill="#806D60" d="M6.111,43.881l-0.92-0.376c-0.378,0.928-0.739,1.864-1.08,2.812l0.935,0.336
		C5.381,45.719,5.735,44.795,6.111,43.881z"/>
	<path fill="#806D60" d="M2.584,55.206l-0.97-0.21c-0.214,0.977-0.407,1.963-0.579,2.956l0.979,0.169
		C2.183,57.142,2.374,56.17,2.584,55.206z"/>
	<path fill="#806D60" d="M48.146,4.525l-0.314-0.941c-0.957,0.32-1.905,0.659-2.842,1.018l0.355,0.927
		C46.269,5.175,47.204,4.841,48.146,4.525z"/>
	<path fill="#806D60" d="M70.001,0.993c0.508,0,1.014,0.005,1.518,0.016l0.022-0.993c-0.491-0.011-0.983-0.016-1.476-0.016
		c-0.516-0.004-1.025,0.004-1.536,0.015l0.02,0.992C69.031,0.998,69.517,0.993,70.001,0.993z"/>
	<path fill="#806D60" d="M83.504,1.301c-0.983-0.191-1.972-0.363-2.968-0.513L80.388,1.77c0.983,0.147,1.957,0.316,2.926,0.506
		L83.504,1.301z"/>
	<path fill="#806D60" d="M77.549,0.402c-0.993-0.105-1.994-0.192-3-0.257l-0.063,0.991c0.992,0.064,1.978,0.149,2.958,0.253
		L77.549,0.402z"/>
	<path fill="#806D60" d="M37.241,9.251l-0.473-0.874c-0.885,0.479-1.759,0.976-2.621,1.492l0.508,0.852
		C35.506,10.213,36.368,9.723,37.241,9.251z"/>
	<path fill="#806D60" d="M95.067,4.624c-0.935-0.359-1.88-0.698-2.835-1.018l-0.313,0.942c0.939,0.314,1.871,0.648,2.794,1.002
		L95.067,4.624z"/>
	<path fill="#806D60" d="M100.579,7.015c-0.9-0.438-1.811-0.856-2.73-1.255l-0.396,0.91c0.908,0.394,1.805,0.808,2.691,1.239
		L100.579,7.015z"/>
	<path fill="#806D60" d="M89.357,2.712c-0.962-0.277-1.933-0.534-2.911-0.769l-0.233,0.965c0.965,0.232,1.922,0.485,2.87,0.758
		L89.357,2.712z"/>
	<path fill="#806D60" d="M105.867,9.875c-0.859-0.513-1.731-1.009-2.614-1.486l-0.472,0.873c0.869,0.471,1.729,0.96,2.576,1.466
		L105.867,9.875z"/>
	<path fill="#806D60" d="M42.59,6.652l-0.396-0.911C41.27,6.141,40.356,6.562,39.453,7l0.436,0.895
		C40.777,7.461,41.678,7.047,42.59,6.652z"/>
	<path fill="#806D60" d="M59.68,1.76l-0.146-0.981c-0.996,0.149-1.986,0.32-2.968,0.511l0.188,0.975
		C57.723,2.075,58.698,1.908,59.68,1.76z"/>
	<path fill="#806D60" d="M53.854,2.894l-0.231-0.967c-0.979,0.235-1.951,0.491-2.913,0.766l0.272,0.956
		C51.932,3.376,52.889,3.125,53.854,2.894z"/>
	<path fill="#806D60" d="M65.583,1.132L65.52,0.142c-1.005,0.063-2.005,0.148-3,0.254l0.106,0.986
		C63.606,1.278,64.592,1.195,65.583,1.132z"/>
</g>
<g>
	<g>
		<path fill="#FF7040" d="M20.615,133.021c0,1.438-0.192,2.768-0.58,3.993c-0.385,1.225-0.937,2.287-1.652,3.188
			c-0.717,0.9-1.584,1.604-2.598,2.109c-1.016,0.506-2.152,0.76-3.41,0.76c-2.769,0-5.903-0.351-9.4-1.052v-6.031v-17.343
			c-0.467-0.082-0.847-0.148-1.141-0.196c-0.294-0.05-0.503-0.083-0.628-0.101c-0.124-0.019-0.215-0.033-0.271-0.043
			C0.312,118.172,0,117.781,0,117.133v-2.204h2.975H7.59v10.987c0.76-0.813,1.62-1.459,2.579-1.94
			c0.96-0.482,2.08-0.723,3.364-0.723c1.046,0,2.002,0.216,2.867,0.646c0.866,0.432,1.613,1.06,2.243,1.885
			c0.629,0.824,1.114,1.844,1.457,3.057C20.443,130.053,20.615,131.446,20.615,133.021z M15.85,133.021
			c0-1.125-0.091-2.077-0.271-2.859c-0.182-0.781-0.439-1.416-0.774-1.902c-0.338-0.488-0.746-0.844-1.227-1.069
			c-0.479-0.225-1.023-0.338-1.634-0.338c-0.959,0-1.778,0.203-2.458,0.609c-0.678,0.406-1.311,0.979-1.896,1.716v10.013
			c1.248,0.237,2.488,0.355,3.719,0.355c0.697,0,1.326-0.131,1.887-0.394c0.562-0.263,1.038-0.662,1.431-1.2
			c0.392-0.537,0.694-1.215,0.905-2.034C15.743,135.1,15.85,134.134,15.85,133.021z"/>
		<path fill="#FF7040" d="M32.592,140.586v2.204H29.76h-4.615h-2.831v-2.204c0-0.648,0.312-1.038,0.936-1.173
			c0.055-0.01,0.132-0.023,0.235-0.043c0.102-0.019,0.287-0.053,0.556-0.101c0.271-0.048,0.638-0.114,1.104-0.196v-11.803
			c-0.467-0.083-0.834-0.148-1.104-0.196c-0.269-0.049-0.454-0.082-0.556-0.101c-0.104-0.02-0.181-0.034-0.235-0.043
			c-0.624-0.134-0.936-0.525-0.936-1.173v-2.204h2.831h4.615v15.52c0.467,0.082,0.836,0.148,1.105,0.196
			c0.27,0.049,0.455,0.082,0.557,0.101c0.102,0.02,0.18,0.033,0.234,0.043C32.279,139.548,32.592,139.938,32.592,140.586z
			 M30.209,119.072c-0.162,0.351-0.377,0.657-0.645,0.919c-0.269,0.263-0.583,0.472-0.943,0.628
			c-0.361,0.156-0.748,0.234-1.159,0.234c-0.398,0-0.776-0.078-1.132-0.234c-0.354-0.156-0.662-0.365-0.924-0.628
			c-0.262-0.262-0.471-0.568-0.626-0.919c-0.155-0.35-0.233-0.725-0.233-1.125c0-0.412,0.078-0.8,0.233-1.163
			c0.155-0.362,0.364-0.675,0.626-0.937c0.262-0.263,0.57-0.473,0.924-0.628c0.355-0.157,0.733-0.235,1.132-0.234
			c0.411,0,0.798,0.078,1.159,0.234s0.675,0.365,0.943,0.628c0.268,0.262,0.482,0.574,0.645,0.937
			c0.162,0.363,0.242,0.751,0.242,1.163C30.451,118.348,30.371,118.723,30.209,119.072z"/>
		<path fill="#FF7040" d="M37.502,141.675c-0.896-0.943-1.345-2.247-1.345-3.909v-10.744h-1.943c-0.249,0-0.464-0.08-0.646-0.243
			c-0.18-0.162-0.27-0.406-0.27-0.73v-1.839l3.083-0.505l0.972-5.251c0.05-0.25,0.164-0.443,0.346-0.581
			c0.181-0.138,0.408-0.206,0.682-0.206h2.393v6.056h5.045v3.3h-5.045v10.426c0,0.6,0.148,1.068,0.449,1.405
			c0.298,0.338,0.696,0.507,1.195,0.507c0.285,0,0.526-0.035,0.719-0.104c0.193-0.068,0.361-0.14,0.506-0.216
			c0.143-0.074,0.27-0.146,0.383-0.216c0.111-0.068,0.224-0.103,0.336-0.103c0.137,0,0.249,0.034,0.336,0.103
			c0.087,0.069,0.181,0.172,0.281,0.311l1.382,2.25c-0.672,0.562-1.444,0.987-2.317,1.273c-0.872,0.289-1.774,0.432-2.709,0.432
			C39.677,143.09,38.399,142.618,37.502,141.675z"/>
		<path fill="#FF7040" d="M63.564,139.922c-0.512,0.601-1.066,1.104-1.662,1.509c-0.599,0.406-1.219,0.731-1.86,0.976
			c-0.642,0.243-1.306,0.415-1.99,0.516c-0.687,0.1-1.366,0.149-2.036,0.149c-1.184,0-2.3-0.222-3.346-0.666
			c-1.047-0.443-1.959-1.091-2.738-1.94c-0.778-0.85-1.395-1.891-1.85-3.121c-0.454-1.231-0.682-2.635-0.682-4.209
			c0-1.413,0.201-2.723,0.606-3.929c0.405-1.205,1-2.249,1.785-3.131c0.785-0.881,1.757-1.572,2.915-2.071
			c1.159-0.5,2.492-0.751,4-0.751c1.551,0,3.563,0.463,6.037,1.388l-0.002,5.918h-0.16h-0.453h-1.537
			c-0.482,0.001-0.772-0.232-0.872-0.699c-0.056-0.315-0.155-1.221-0.3-2.715c-0.974-0.244-1.785-0.366-2.434-0.366
			c-0.809,0-1.52,0.146-2.131,0.441c-0.61,0.293-1.117,0.715-1.522,1.265s-0.708,1.216-0.907,1.997
			c-0.198,0.781-0.299,1.665-0.299,2.653c0,1.024,0.109,1.938,0.327,2.737c0.218,0.799,0.533,1.471,0.944,2.016
			c0.411,0.543,0.909,0.955,1.496,1.237c0.584,0.28,1.244,0.421,1.98,0.421c0.734,0,1.329-0.091,1.783-0.271
			c0.455-0.182,0.838-0.381,1.149-0.6c0.31-0.218,0.581-0.418,0.813-0.601c0.23-0.181,0.488-0.271,0.775-0.271
			c0.374,0,0.654,0.144,0.841,0.432L63.564,139.922z"/>
		<path fill="#FF7040" d="M83.838,140.549v2.203h-2.322h-0.509h-1.565c-0.436,0-0.778-0.065-1.028-0.197
			c-0.249-0.13-0.436-0.396-0.561-0.795l-0.41-1.37c-0.487,0.438-0.963,0.822-1.431,1.153c-0.465,0.33-0.948,0.609-1.448,0.835
			c-0.498,0.225-1.027,0.394-1.587,0.505c-0.562,0.113-1.185,0.17-1.869,0.17c-0.809,0-1.557-0.109-2.243-0.329
			c-0.685-0.22-1.272-0.549-1.765-0.987c-0.492-0.439-0.876-0.985-1.15-1.638c-0.273-0.651-0.411-1.411-0.411-2.276
			c0-0.727,0.19-1.444,0.569-2.153c0.381-0.708,1.014-1.348,1.898-1.919c0.883-0.57,2.061-1.044,3.53-1.42s3.295-0.564,5.476-0.564
			v-1.133c0-1.298-0.271-2.258-0.813-2.882c-0.542-0.623-1.33-0.936-2.363-0.936c-0.748,0-1.371,0.088-1.869,0.264
			c-0.499,0.175-0.932,0.371-1.299,0.59c-0.365,0.217-0.704,0.414-1.019,0.591c-0.312,0.175-0.653,0.262-1.028,0.262
			c-0.312,0-0.578-0.081-0.803-0.243s-0.404-0.362-0.542-0.6l-0.841-1.481c2.205-2.025,4.864-3.038,7.979-3.038
			c1.121,0,2.121,0.185,3,0.554c0.878,0.368,1.622,0.881,2.233,1.537c0.61,0.657,1.075,1.441,1.392,2.354
			c0.318,0.912,0.477,1.912,0.477,2.999v8.523c0.426,0.075,0.754,0.134,0.984,0.177c0.231,0.042,0.365,0.066,0.402,0.072
			C83.525,139.51,83.838,139.9,83.838,140.549z M77.012,134.597c-1.347,0-2.471,0.085-3.372,0.254
			c-0.903,0.17-1.629,0.388-2.178,0.652c-0.548,0.265-0.938,0.572-1.168,0.926c-0.23,0.352-0.346,0.735-0.346,1.15
			c0,0.819,0.239,1.404,0.72,1.757c0.479,0.353,1.105,0.528,1.878,0.528c0.473,0,0.909-0.042,1.308-0.128
			c0.399-0.087,0.776-0.216,1.132-0.389c0.354-0.172,0.696-0.384,1.026-0.637c0.331-0.252,0.664-0.55,1-0.895V134.597z"/>
		<path fill="#FF7040" d="M118.73,140.586v2.205h-2.831h-4.616v-12.243c0-1.226-0.268-2.146-0.804-2.767
			c-0.535-0.618-1.32-0.928-2.354-0.928c-0.474,0-0.913,0.082-1.316,0.244c-0.406,0.163-0.761,0.396-1.066,0.703
			c-0.305,0.307-0.545,0.69-0.719,1.153c-0.176,0.462-0.262,0.993-0.262,1.594v8.526c0.467,0.082,0.835,0.147,1.104,0.195
			c0.269,0.049,0.454,0.082,0.556,0.102c0.103,0.019,0.181,0.033,0.235,0.043c0.623,0.134,0.935,0.524,0.935,1.172v2.205h-2.829
			h-4.634v-12.243c0-1.288-0.259-2.225-0.776-2.813s-1.28-0.881-2.289-0.881c-0.66,0-1.28,0.165-1.859,0.496
			c-0.58,0.332-1.118,0.785-1.616,1.359v10.364c0.466,0.082,0.832,0.147,1.101,0.195c0.269,0.049,0.454,0.082,0.556,0.102
			c0.103,0.019,0.181,0.033,0.234,0.043c0.624,0.134,0.936,0.524,0.936,1.172v2.205h-2.826h-4.615h-2.831v-2.205
			c-0.001-0.647,0.312-1.038,0.935-1.172c0.055-0.01,0.134-0.024,0.234-0.043c0.103-0.02,0.288-0.053,0.558-0.102
			c0.269-0.048,0.638-0.113,1.104-0.195v-11.803c-0.467-0.083-0.836-0.148-1.104-0.196c-0.27-0.05-0.455-0.083-0.558-0.102
			c-0.101-0.019-0.18-0.032-0.234-0.042c-0.623-0.135-0.936-0.525-0.935-1.173v-2.205h2.831h2.821c0.598,0,0.99,0.281,1.178,0.844
			l0.298,1.426c0.338-0.376,0.688-0.72,1.057-1.032c0.369-0.313,0.761-0.582,1.178-0.806c0.416-0.226,0.865-0.403,1.345-0.534
			c0.479-0.132,1.006-0.197,1.58-0.197c1.208,0,2.201,0.328,2.98,0.984c0.778,0.656,1.359,1.528,1.746,2.616
			c0.298-0.638,0.672-1.185,1.121-1.641c0.448-0.456,0.94-0.828,1.477-1.115c0.535-0.287,1.104-0.501,1.711-0.639
			c0.604-0.138,1.211-0.206,1.821-0.206c1.058,0,1.998,0.163,2.821,0.487c0.822,0.325,1.514,0.801,2.074,1.426
			s0.988,1.387,1.28,2.286c0.293,0.901,0.439,1.933,0.439,3.095v8.526c0.466,0.082,0.835,0.147,1.104,0.195
			c0.27,0.049,0.455,0.082,0.557,0.103c0.102,0.018,0.18,0.032,0.234,0.042C118.419,139.548,118.73,139.938,118.73,140.586z"/>
		<path fill="#FF7040" d="M140,133.021c0,1.438-0.193,2.769-0.579,3.994c-0.387,1.225-0.938,2.287-1.654,3.187
			c-0.716,0.9-1.582,1.604-2.597,2.109c-1.017,0.508-2.152,0.76-3.411,0.76c-1.083,0-2.003-0.166-2.756-0.497
			c-0.754-0.331-1.43-0.79-2.028-1.378v4.157c0.468,0.084,0.835,0.149,1.104,0.197c0.269,0.049,0.454,0.082,0.556,0.102
			c0.103,0.018,0.18,0.032,0.234,0.042c0.624,0.134,0.936,0.524,0.936,1.173v2.204h-2.83h-4.615h-2.831v-2.204
			c0-0.647,0.311-1.039,0.935-1.173c0.055-0.01,0.133-0.024,0.235-0.042c0.103-0.02,0.287-0.053,0.557-0.102
			s0.638-0.113,1.104-0.197v-18.082c-0.467-0.083-0.835-0.148-1.104-0.196c-0.27-0.049-0.454-0.083-0.557-0.102
			s-0.181-0.032-0.235-0.042c-0.624-0.135-0.935-0.525-0.935-1.173v-2.205h2.831h2.822c0.298,0,0.554,0.068,0.766,0.206
			c0.211,0.138,0.349,0.351,0.412,0.638l0.373,1.781c0.771-0.887,1.659-1.606,2.662-2.156s2.178-0.825,3.522-0.825
			c1.047,0,2.003,0.22,2.868,0.656c0.867,0.438,1.613,1.072,2.243,1.903c0.629,0.831,1.114,1.856,1.457,3.074
			C139.828,130.052,140,131.448,140,133.021z M135.234,133.021c0-1.123-0.091-2.076-0.271-2.858
			c-0.182-0.782-0.439-1.417-0.776-1.903c-0.336-0.487-0.743-0.844-1.224-1.068c-0.479-0.225-1.025-0.338-1.636-0.338
			c-0.958,0-1.777,0.203-2.456,0.609c-0.679,0.405-1.312,0.978-1.897,1.716v8.624c0.523,0.65,1.094,1.104,1.709,1.36
			c0.617,0.256,1.28,0.384,1.991,0.384c0.697,0,1.33-0.132,1.897-0.394c0.566-0.263,1.046-0.662,1.438-1.2
			c0.393-0.537,0.694-1.215,0.906-2.034S135.234,134.135,135.234,133.021z"/>
	</g>
</g>
<rect id="_x3C_Slice_x3E_" fill="none" width="140" height="150"/>
</svg>
