<?xml version="1.0" encoding="utf-8"?>
<!-- Generator: Adobe Illustrator 16.0.3, SVG Export Plug-In . SVG Version: 6.00 Build 0)  -->
<!DOCTYPE svg PUBLIC "-//W3C//DTD SVG 1.1//EN" "http://www.w3.org/Graphics/SVG/1.1/DTD/svg11.dtd">
<svg version="1.1" id="Layer_1" xmlns="http://www.w3.org/2000/svg" xmlns:xlink="http://www.w3.org/1999/xlink" x="0px" y="0px"
	 width="100px" height="100px" viewBox="0 0 100 100" enable-background="new 0 0 100 100" xml:space="preserve">
<g>
	<path fill="#806D60" d="M34.686,99.971c-4.486,0-8.749,0-13.257,0c0-0.68,0-1.573,0-2.209c0-10.463,0-20.927,0-31.391
		c0-2.26,0-2.244-2.349-2.238c-5.766,0.01-11.534,0.009-17.303,0.006c-0.481,0-0.961-0.041-1.776-0.08
		c3.831-6.653,7.548-13.108,11.413-19.822c-1.594,0-2.884,0-4.579,0c2.847-4.948,5.52-9.599,8.337-14.501c-1.229,0-2.184,0-3.554,0
		C17.412,19.705,23.029,9.983,28.797,0c5.765,9.974,11.37,19.673,17.097,29.578c-1.035,0.054-1.827,0.096-2.954,0.154
		c2.763,4.811,5.438,9.46,8.248,14.349c-1.335,0.058-2.489,0.109-3.966,0.174c3.82,6.642,7.532,13.094,11.382,19.785
		c-0.893,0.042-1.469,0.089-2.045,0.091c-6.54,0.007-13.077,0.007-19.611,0.004c-2.258,0-2.26-0.002-2.26,2.178
		c0,10.465,0,20.93,0,31.393C34.686,98.302,34.686,99.156,34.686,99.971z"/>
	<path fill="#806D60" d="M42.555,99.971c2.158-8.796,4.227-17.563,6.404-26.136c0.42-1.656,0.482-3.197-0.015-4.808
		c-0.229-0.742-0.359-1.516-0.535-2.273c0.165-0.049,0.332-0.094,0.497-0.142c0.273,0.749,0.548,1.499,0.922,2.523
		c0.357-0.97,0.616-1.671,0.873-2.374c0.167,0.041,0.332,0.084,0.498,0.125c-0.256,1.25-0.51,2.502-0.789,3.871
		c13.531,0,26.951,0,40.579,0c-0.269-1.367-0.522-2.659-0.776-3.951c0.139-0.051,0.275-0.104,0.412-0.152
		c0.27,0.622,0.537,1.246,0.901,2.092c0.337-0.848,0.624-1.57,0.911-2.287c0.195,0.059,0.392,0.115,0.59,0.174
		c-0.443,1.416-0.847,2.849-1.348,4.244c-0.246,0.678-0.831,1.25-1,1.937c-2.141,8.586-4.244,18.554-6.32,27.157
		c-1.15,0-0.564,0.001-1.621,0c-13.012-0.035-26.023,0.004-39.034,0C43.388,99.973,43.073,100.036,42.555,99.971z"/>
	<path fill="#806D60" d="M92.809,70.871c2.383,9.563,4.768,19.383,7.191,29.1c-4.697,0-9.252,0-14.098,0
		c2.193-9.641,4.375-19.49,6.558-29.081C92.574,70.885,92.69,70.877,92.809,70.871z"/>
</g>
</svg>
